<?xml version="1.0" standalone="no"?>
<!DOCTYPE svg PUBLIC "-//W3C//DTD SVG 1.1//EN" "http://www.w3.org/Graphics/SVG/1.1/DTD/svg11.dtd" >
<svg xmlns="http://www.w3.org/2000/svg">
<metadata>Generated by IcoMoon</metadata>
<defs>
<font id="icomoon" horiz-adv-x="1024">
<font-face units-per-em="1024" ascent="960" descent="-64" />
<missing-glyph horiz-adv-x="1024" />
<glyph unicode="&#x20;" horiz-adv-x="512" d="" />
<glyph unicode="&#xe900;" glyph-name="visit" d="M697.435 464.412c58.88 0 106.24 47.785 106.24 106.665s-47.36 106.667-106.24 106.667c-58.88 0-106.665-47.787-106.665-106.667s47.785-106.665 106.665-106.665zM377.436 507.077c70.828 0 127.573 57.175 127.573 128 0 70.827-56.745 128-127.573 128s-128-57.173-128-128c0-70.825 57.173-128 128-128zM697.435 379.077c-78.080 0-234.665-39.255-234.665-117.335v-96h469.335v96c0 78.080-156.589 117.335-234.669 117.335zM377.436 421.742c-99.413 0-298.667-49.92-298.667-149.331v-106.669h298.667v96c0 36.269 14.080 99.84 101.119 148.055-37.12 7.68-72.96 11.945-101.119 11.945z" />
<glyph unicode="&#xe901;" glyph-name="views" d="M522.779 248.589c-56.515 0.807-107.639 23.238-145.606 59.369l0.090-0.085c-33.674 33.161-54.537 79.248-54.537 130.207 0 5.389 0.233 10.723 0.69 15.993l-0.048-0.685c0.807 56.515 23.238 107.639 59.369 145.606l-0.085-0.090c37.224 35.039 87.508 56.57 142.821 56.57s105.597-21.531 142.928-56.67l-0.106 0.099c36.629-36.092 59.321-86.24 59.321-141.688 0-1.346-0.013-2.689-0.040-4.028l0.003 0.2c-0.807-56.515-23.238-107.639-59.369-145.606l0.085 0.090c-34.319-36.644-83-59.477-137.014-59.477-2.99 0-5.964 0.070-8.92 0.208l0.418-0.016zM522.779 545.011c-0.201 0.002-0.438 0.003-0.675 0.003-25.074 0-47.739-10.315-63.983-26.933l-0.016-0.017c-15.935-16.944-26.021-39.548-26.942-64.494l-0.005-0.18c0.927-25.126 11.013-47.73 26.996-64.725l-0.048 0.052c17.133-17.476 40.985-28.308 67.368-28.308s50.236 10.833 67.353 28.293l0.015 0.015c15.935 16.944 26.021 39.548 26.942 64.494l0.005 0.18c-0.927 25.126-11.013 47.73-26.996 64.725l0.048-0.052c-16.277 16.749-39.017 27.141-64.185 27.141-2.068 0-4.12-0.070-6.154-0.208l0.275 0.015zM522.779 54.568c-0.725-0.003-1.584-0.005-2.443-0.005-243.212 0-449.206 159.348-519.275 379.338l-1.061 3.859c-1.284 4.689-2.021 10.073-2.021 15.629s0.738 10.94 2.12 16.060l-0.099-0.43c71.428 223.691 277.439 382.845 520.623 382.845s449.194-159.154 519.556-378.983l1.068-3.862c1.575-4.833 2.482-10.395 2.482-16.168s-0.908-11.335-2.589-16.55l0.106 0.381c-71.896-222.403-276.509-380.692-518.299-382.113l-0.168-0.001zM110.484 453.389c61.739-171.004 222.643-291.032 411.581-291.032 0.251 0 0.501 0 0.752 0.001h-0.038c189.028 0.781 349.847 120.699 411.316 288.517l0.978 3.053c-62.131 170.978-223.209 290.898-412.295 290.898s-350.163-119.92-411.326-287.855l-0.969-3.043z" />
<glyph unicode="&#xe902;" glyph-name="subs-sm" d="M839.68-28.16h-655.36c-30.72 0-51.2 20.48-51.2 51.2 0 102.4 40.96 194.56 112.64 266.24 71.68 76.8 163.84 117.76 266.24 117.76s199.68-40.96 266.24-112.64c71.68-71.68 112.64-168.96 112.64-266.24 0-30.72-20.48-56.32-51.2-56.32zM240.64 74.24h542.72c-10.24 56.32-35.84 102.4-76.8 143.36-51.2 51.2-122.88 81.92-194.56 81.92s-143.36-30.72-194.56-81.92c-40.96-35.84-66.56-87.040-76.8-143.36zM512 442.88c-61.44 0-122.88 25.6-168.96 71.68s-71.68 102.4-71.68 168.96c0 61.44 25.6 122.88 71.68 168.96s107.52 66.56 168.96 66.56c61.44 0 122.88-25.6 168.96-71.68s71.68-107.52 71.68-168.96c0-61.44-25.6-122.88-71.68-168.96-46.080-40.96-107.52-66.56-168.96-66.56zM512 816.64c-35.84 0-71.68-10.24-97.28-35.84s-40.96-61.44-40.96-97.28c0-35.84 15.36-71.68 40.96-97.28 51.2-51.2 143.36-51.2 194.56 0 25.6 25.6 40.96 61.44 40.96 97.28s-15.36 71.68-40.96 97.28c-25.6 25.6-61.44 35.84-97.28 35.84z" />
<glyph unicode="&#xe903;" glyph-name="star" d="M1024 563.712l-368.128 31.744-143.872 338.944-143.872-339.456-368.128-31.232 279.552-242.176-83.968-359.936 316.416 190.976 316.416-190.976-83.456 359.936 279.040 242.176zM512 248.32l-192.512-116.224 51.2 219.136-169.984 147.456 224.256 19.456 87.040 206.336 87.552-206.848 224.256-19.456-169.984-147.456 51.2-219.136-193.024 116.736z" />
<glyph unicode="&#xe904;" glyph-name="settings" d="M816.63 408.064c1.536 12.8 2.56 26.112 2.56 39.936s-1.024 27.136-3.072 39.936l86.528 67.584c7.68 6.144 9.728 17.408 5.12 26.112l-81.92 141.824c-5.12 9.216-15.872 12.288-25.088 9.216l-101.888-40.96c-21.504 16.384-44.032 29.696-69.12 39.936l-15.36 108.544c-1.536 10.24-10.24 17.408-20.48 17.408h-163.842c-10.24 0-18.432-7.168-19.968-17.408l-15.36-108.544c-25.088-10.24-48.128-24.064-69.12-39.936l-101.888 40.96c-9.216 3.584-19.968 0-25.088-9.216l-81.92-141.824c-5.12-9.216-3.072-19.968 5.12-26.112l86.528-67.584c-2.048-12.8-3.584-26.624-3.584-39.936s1.024-27.136 3.072-39.936l-86.528-67.584c-7.68-6.144-9.728-17.408-5.12-26.112l81.92-141.824c5.12-9.216 15.872-12.288 25.088-9.216l101.888 40.96c21.504-16.384 44.032-29.696 69.12-39.936l15.36-108.544c2.048-10.24 10.24-17.408 20.48-17.408h163.842c10.24 0 18.944 7.168 19.968 17.408l15.36 108.544c25.088 10.24 48.128 24.064 69.12 39.936l101.888-40.96c9.216-3.584 19.968 0 25.088 9.216l81.92 141.824c5.12 9.216 3.072 19.968-5.12 26.112l-85.504 67.584zM511.988 294.4c-84.48 0-153.6 69.12-153.6 153.6s69.12 153.6 153.6 153.6c84.482 0 153.602-69.12 153.602-153.6s-69.12-153.6-153.602-153.6z" />
<glyph unicode="&#xe905;" glyph-name="save" d="M849.545-64h-675.705c0 0-0.001 0-0.001 0-96.009 0-173.84 77.831-173.84 173.84 0 0.216 0 0.432 0.001 0.647v-0.033 675.705c0 96.009 77.831 173.84 173.84 173.84v0h675.705c0.182 0.001 0.398 0.001 0.614 0.001 96.009 0 173.84-77.831 173.84-173.84 0 0 0-0.001 0-0.001v0-675.705c0.001-0.183 0.001-0.399 0.001-0.615 0-96.009-77.831-173.84-173.84-173.84-0.216 0-0.433 0-0.649 0.001h0.033zM173.84 837.145c-0.184 0.002-0.401 0.004-0.618 0.004-27.819 0-50.371-22.552-50.371-50.371 0-0.217 0.001-0.434 0.004-0.651v0.033-675.705c0-0.001 0-0.002 0-0.004 0-28.282 22.753-51.249 50.952-51.595h675.738c28.359 0.342 51.257 23.241 51.599 51.567v675.737c-0.347 28.232-23.314 50.985-51.596 50.985-0.001 0-0.003 0-0.004 0h-50.985v-614.277c0-0.036 0-0.080 0-0.123 0-21.861-11.42-41.055-28.619-51.942l-0.252-0.149c-9.422-6.178-20.966-9.854-33.369-9.854-10.245 0-19.904 2.508-28.398 6.944l0.339-0.161-196.569 99.513-197.797-99.513c-8.154-4.274-17.813-6.783-28.058-6.783-12.403 0-23.948 3.676-33.604 9.998l0.234-0.144c-16.41 11.197-27.042 29.808-27.042 50.902 0 0.461 0.005 0.921 0.015 1.38l-0.001-0.068v614.277zM511.693 396.708c0.254 0.004 0.554 0.006 0.854 0.006 9.746 0 18.962-2.27 27.148-6.309l-0.36 0.161 136.37-68.185v514.764h-327.41v-514.764l136.37 68.185c7.823 3.876 17.035 6.143 26.777 6.143 0.088 0 0.177 0 0.265-0.001h-0.014z" />
<glyph unicode="&#xe906;" glyph-name="people" d="M704.010 405.33c-51.2 0-130.99-14.505-192-42.665-61.015 28.585-140.802 42.665-192.002 42.665-92.586 0-277.333-46.080-277.333-138.665v-117.335h938.665v117.335c0 92.585-184.745 138.665-277.33 138.665zM533.34 213.33h-426.665v53.335c0 23.040 109.226 74.665 213.333 74.665s213.332-51.625 213.332-74.665v-53.335zM917.34 213.33h-320v53.335c0 19.625-8.53 36.695-22.185 52.055 37.545 12.8 83.625 22.61 128.855 22.61 104.105 0 213.33-51.625 213.33-74.665v-53.335zM320.008 448c82.347 0 149.334 66.985 149.334 149.332s-66.986 149.333-149.334 149.333c-82.346 0-149.333-66.986-149.333-149.333s66.986-149.332 149.333-149.332zM320.008 682.665c46.934 0 85.334-38.4 85.334-85.333s-38.4-85.334-85.334-85.334c-46.933 0-85.333 38.4-85.333 85.334s38.4 85.333 85.333 85.333zM704.010 448c82.345 0 149.33 66.985 149.33 149.332s-66.985 149.333-149.33 149.333c-82.35 0-149.335-66.986-149.335-149.333s66.985-149.332 149.335-149.332zM704.010 682.665c46.93 0 85.33-38.4 85.33-85.333s-38.4-85.334-85.33-85.334c-46.935 0-85.335 38.4-85.335 85.334s38.4 85.333 85.335 85.333z" />
<glyph unicode="&#xe907;" glyph-name="no-active" d="M359.331 443.035h43.442v464.834h-350.642v-464.834h310.303zM402.773 181.76v43.442h-350.642v-237.072h350.642v193.629zM971.869 409.522v43.442h-351.263v-464.834h350.642v421.392zM930.909 670.798h43.442v237.072h-353.745v-237.072h310.303zM68.267 434.347c-13.71 0-24.824 11.114-24.824 24.824v0 434.424c0.998 12.885 11.699 22.963 24.754 22.963 0.025 0 0.049 0 0.074 0h318.367c13.71 0 24.824-11.114 24.824-24.824v0-434.424c0-13.71-11.114-24.824-24.824-24.824v0zM68.267-20.558c-13.71 0-24.824 11.114-24.824 24.824v204.8c0 13.71 11.114 24.824 24.824 24.824v0h318.371c13.71 0 24.824-11.114 24.824-24.824v-204.8c0-13.71-11.114-24.824-24.824-24.824v0zM637.362-20.558c-13.71 0-24.824 11.114-24.824 24.824v434.424c0 13.71 11.114 24.824 24.824 24.824v0h318.371c13.71 0 24.824-11.114 24.824-24.824v0-434.424c0-13.71-11.114-24.824-24.824-24.824v0zM612.538 891.733c0 13.71 11.114 24.824 24.824 24.824v0h318.371c13.71 0 24.824-11.114 24.824-24.824v0-204.8c0-13.71-11.114-24.824-24.824-24.824h-318.371c-13.71 0-24.824 11.114-24.824 24.824v0zM955.733-64h-318.371c-0.102-0.001-0.224-0.001-0.345-0.001-12.188 0-23.623 3.223-33.5 8.864l0.332-0.175h-26.065v26.065c-5.467 9.65-8.688 21.193-8.688 33.49 0 0.008 0 0.016 0 0.024v-0.001 434.424c0.021 12.095 3.242 23.433 8.861 33.218l-0.173-0.326v24.824h26.065c9.544 5.466 20.98 8.689 33.168 8.689 0.121 0 0.243 0 0.364-0.001h318.352c0.007 0 0.015 0 0.023 0 12.296 0 23.84-3.222 33.833-8.867l-0.344 0.179h26.065v-26.686c5.447-9.459 8.668-20.797 8.688-32.886v-434.43c0-0.007 0-0.015 0-0.023 0-12.296-3.222-23.84-8.867-33.833l0.179 0.344v-26.065h-26.065c-8.786-4.361-19.133-6.912-30.076-6.912-1.209 0-2.41 0.031-3.604 0.093l0.167-0.007zM664.669 29.091h266.24v380.432h-266.24zM386.638-64h-318.371c-0.007 0-0.015 0-0.023 0-12.296 0-23.84 3.222-33.833 8.867l0.344-0.179h-26.065v26.065c-5.467 9.65-8.688 21.193-8.688 33.49 0 0.008 0 0.016 0 0.024v-0.001 204.8c0 0.007 0 0.015 0 0.023 0 12.296 3.222 23.84 8.867 33.833l-0.179-0.344v26.065h26.065c9.65 5.467 21.193 8.688 33.49 8.688 0.008 0 0.016 0 0.024 0h318.37c0.102 0.001 0.224 0.001 0.345 0.001 12.188 0 23.623-3.223 33.5-8.864l-0.332 0.175h26.065v-26.065c5.467-9.65 8.688-21.193 8.688-33.49 0-0.008 0-0.016 0-0.024v0.001-204.8c0-0.007 0-0.015 0-0.023 0-12.296-3.222-23.84-8.867-33.833l0.179 0.344v-26.065h-26.065c-9.544-5.466-20.98-8.689-33.168-8.689-0.121 0-0.243 0-0.364 0.001h0.019zM95.573 29.091h263.758v152.669h-263.758zM386.638 390.904h-318.371c-12.501 0.607-23.99 4.456-33.79 10.716l0.277-0.166h-26.065v24.824c-5.447 9.459-8.668 20.797-8.688 32.886v434.43c0.329 11.67 3.51 22.528 8.867 31.994l-0.178-0.343v26.065h26.065c9.65 5.467 21.193 8.688 33.49 8.688 0.008 0 0.016 0 0.024 0h318.37c0.102 0.001 0.224 0.001 0.345 0.001 12.188 0 23.623-3.223 33.5-8.864l-0.332 0.175h26.065v-26.065c5.467-9.65 8.688-21.193 8.688-33.49 0-0.008 0-0.016 0-0.024v0.001-434.424c-0.021-12.095-3.242-23.433-8.861-33.218l0.173 0.326v-22.962h-26.065c-9.506-6.147-21.008-10.006-33.371-10.545l-0.142-0.005zM95.573 486.478h263.758v377.949h-263.758zM955.733 618.667h-318.371c-0.102-0.001-0.224-0.001-0.345-0.001-12.188 0-23.623 3.223-33.5 8.864l0.332-0.175h-26.065v26.065c-5.467 9.65-8.688 21.193-8.688 33.49 0 0.008 0 0.016 0 0.024v-0.001 204.8c0 0.007 0 0.015 0 0.023 0 12.296 3.222 23.84 8.867 33.833l-0.179-0.344v26.065h26.065c9.544 5.466 20.98 8.689 33.168 8.689 0.121 0 0.243 0 0.364-0.001h318.352c0.007 0 0.015 0 0.023 0 12.296 0 23.84-3.222 33.833-8.867l-0.344 0.179h26.065v-26.065c5.467-9.65 8.688-21.193 8.688-33.49 0-0.008 0-0.016 0-0.024v0.001-204.8c0-0.007 0-0.015 0-0.023 0-12.296-3.222-23.84-8.867-33.833l0.179 0.344v-26.065h-26.065c-9.65-5.467-21.193-8.688-33.49-8.688-0.008 0-0.016 0-0.024 0h0.001zM664.669 711.758h266.24v152.669h-266.24z" />
<glyph unicode="&#xe908;" glyph-name="list-plus" d="M614.4 602.891h-614.4v-103.261h614.4v103.261zM614.4 809.412h-614.4v-103.261h614.4v103.261zM819.2 396.37v206.521h-102.4v-206.521h-204.8v-103.261h204.8v-206.521h102.4v206.521h204.8v103.261h-204.8zM0 293.109h409.6v103.261h-409.6v-103.261z" />
<glyph unicode="&#xe909;" glyph-name="link" d="M877.039 82.961h-730.076v730.076h365.037v104.296h-365.037c-57.884 0-104.296-46.933-104.296-104.296v-730.076c0-57.361 46.412-104.294 104.296-104.294h730.076c57.361 0 104.294 46.933 104.294 104.294v365.039h-104.294v-365.039zM616.294 917.333v-104.296h187.216l-512.618-512.618 73.529-73.529 512.618 512.618v-187.212h104.294v365.037h-365.039z" />
<glyph unicode="&#xe90a;" glyph-name="like-up" d="M604.5 917.333l-280.917-281.417c-15.957-16-24.917-37.637-24.917-60.25v-426.333c0-47.147 38.187-85.333 85.333-85.333h383.667c34.091 0 64.934 20.307 78.417 51.667l128.333 298.75c4.565 10.624 6.917 22.104 6.917 33.667v85.25c0 47.147-38.187 85.333-85.333 85.333h-271l40 183.333c6.229 28.587-2.719 58.435-23.583 79zM42.667 576v-512h170.667v512z" />
<glyph unicode="&#xe90b;" glyph-name="like" d="M498.526 12.531c-0.093-0.001-0.202-0.001-0.312-0.001-14.805 0-28.216 5.97-37.957 15.634l-377.26 377.26c-49.954 50.020-80.847 119.086-80.847 195.368s30.893 145.349 80.85 195.371l-0.003-0.003c50.020 49.954 119.086 80.847 195.368 80.847s145.349-30.893 195.371-80.85l26.944-26.944 26.947 26.947c50.021 49.962 119.093 80.86 195.382 80.86 75.21 0 143.406-30.031 193.251-78.755l-0.052 0.051c49.954-50.020 80.847-119.086 80.847-195.368s-30.893-145.349-80.85-195.371l-377.26-377.26c-9.903-10.942-24.157-17.787-40.011-17.787-0.144 0-0.288 0.001-0.432 0.002h0.022zM157.373 721.785c-15.374-14.94-27.763-32.859-36.249-52.836l-0.399-1.058c-8.165-19.021-12.912-41.158-12.912-64.404s4.748-45.384 13.326-65.495l-0.414 1.091c8.885-21.036 21.275-38.954 36.61-53.858l0.038-0.037 341.154-341.693 341.154 341.693c30.654 30.302 49.638 72.353 49.638 118.838s-18.984 88.535-49.622 118.822l-0.016 0.016c-30.922 29.275-72.778 47.275-118.838 47.275s-87.916-18-118.917-47.35l0.080 0.075-63.057-65.752c-9.768-9.846-23.305-15.942-38.265-15.942s-28.497 6.096-38.262 15.938l-0.004 0.004-67.368 64.674c-14.94 15.374-32.859 27.763-52.836 36.249l-1.058 0.399c-19.021 8.165-41.158 12.912-64.404 12.912s-45.384-4.748-65.495-13.326l1.091 0.414c-21.455-8.761-39.746-21.172-54.951-36.627l-0.021-0.022z" />
<glyph unicode="&#xe90c;" glyph-name="info" d="M511.995 874.668c-235.52 0-426.667-191.147-426.667-426.667 0-235.521 191.147-426.664 426.667-426.664s426.668 191.142 426.668 426.664c0 235.52-191.149 426.667-426.668 426.667zM554.662 234.669h-85.334v255.999h85.334v-255.999zM554.662 576.001h-85.334v85.333h85.334v-85.333z" />
<glyph unicode="&#xe90d;" glyph-name="home" d="M426.658 106.665v256h170.666v-256h213.335v341.335h128l-426.668 384-426.667-384h128v-341.335h213.334z" />
<glyph unicode="&#xe90e;" glyph-name="history" d="M512-64c-70.682 0.075-138.019 14.308-199.357 40.015l3.413-1.269c-125.479 53.382-223.375 151.278-275.48 273.392l-1.276 3.365c-24.683 58.054-39.112 125.566-39.299 196.425v0.072c0 282.77 229.23 512 512 512v0c282.77 0 512-229.23 512-512v0c-0.075-70.682-14.308-138.019-40.015-199.357l1.269 3.413c-53.382-125.479-151.278-223.375-273.392-275.48l-3.365-1.276c-58.054-24.683-125.566-39.112-196.425-39.299h-0.072zM512 849.297c-0.164 0-0.359 0-0.554 0-221.325 0-400.744-179.419-400.744-400.744 0-0.195 0-0.389 0-0.584v0.030c0.202-54.953 11.373-107.242 31.434-154.867l-0.991 2.651c40.468-100.626 117.831-179.249 214.923-220.423l2.607-0.982c45.183-18.943 97.691-29.949 152.77-29.949s107.588 11.005 155.447 30.937l-2.677-0.988c50.499 21.557 93.653 50.871 130.113 86.938l-0.037-0.036c38.204 37.364 69.061 82.061 90.318 131.838l1.012 2.666c19.212 45.313 30.397 98.006 30.443 153.305v0.018c-0.307 221.093-179.609 400.204-400.743 400.204-1.168 0-2.335-0.005-3.5-0.015l0.179 0.001zM664.216 240.432c-0.095-0.001-0.207-0.001-0.32-0.001-15.206 0-28.979 6.131-38.983 16.056l0.004-0.004-152.216 150.002c-9.922 10-16.053 23.774-16.053 38.979 0 0.113 0 0.225 0.001 0.337v-0.017 205.354c0.060 30.524 24.819 55.245 55.351 55.245 22.732 0 42.264-13.704 50.785-33.301l0.138-0.357 152.216-355.356c2.795-6.394 4.421-13.845 4.421-21.676 0-18.999-9.572-35.762-24.157-45.73l-0.19-0.123c-8.664-5.894-19.358-9.41-30.873-9.41-0.043 0-0.087 0-0.13 0h0.007z" />
<glyph unicode="&#xe90f;" glyph-name="help" d="M469.325 192h85.335v85.33h-85.335v-85.33zM511.992 874.665c-235.52 0-426.667-191.146-426.667-426.665s191.147-426.67 426.667-426.67c235.518 0 426.668 191.15 426.668 426.67 0 235.519-191.15 426.665-426.668 426.665zM511.992 106.665c-188.16 0-341.334 153.175-341.334 341.335 0 188.159 153.174 341.332 341.334 341.332 188.158 0 341.333-153.174 341.333-341.332 0-188.16-153.175-341.335-341.333-341.335zM511.992 703.999c-94.294 0-170.667-76.374-170.667-170.666h85.334c0 46.933 38.4 85.333 85.334 85.333s85.333-38.4 85.333-85.333c0-85.332-127.999-74.667-127.999-213.332h85.335c0 96 128 106.665 128 213.332 0 94.293-76.375 170.666-170.668 170.666z" />
<glyph unicode="&#xe910;" glyph-name="heart" d="M725.333 874.667c-82.489 0-161.662-38.4-213.336-99.082-51.674 60.682-130.844 99.082-213.333 99.082-146.015 0-260.741-114.726-260.741-260.741 0-179.2 161.185-325.215 405.334-547.082l68.741-62.106 68.741 62.578c244.15 221.394 405.333 367.409 405.333 546.609 0 146.014-114.728 260.741-260.739 260.741zM516.738 137.483l-4.741-4.745-4.741 4.745c-225.659 204.324-374.519 339.435-374.519 476.443 0 94.814 71.111 165.926 165.926 165.926 73.007 0 144.118-46.933 169.244-111.881h88.652c24.651 64.948 95.762 111.881 168.773 111.881 94.811 0 165.922-71.111 165.922-165.926 0-137.008-148.855-272.119-374.517-476.443z" />
<glyph unicode="&#xe911;" glyph-name="exit" d="M554.665 832h-85.331v-426.665h85.331v426.665zM760.745 739.414l-60.585-60.587c67.415-54.186 110.505-137.386 110.505-230.826 0-165.12-133.545-298.665-298.665-298.665s-298.666 133.545-298.666 298.665c0 93.44 43.093 176.64 110.080 231.254l-60.16 60.16c-82.774-70.4-135.254-174.507-135.254-291.414 0-212.055 171.946-384 384-384s384 171.945 384 384c0 116.906-52.48 221.014-135.255 291.414z" />
<glyph unicode="&#xe912;" glyph-name="email" d="M934.001 838h-844.001c-49.564 0-90-40.392-90-90v-600.002c0-49.439 40.256-89.999 90-89.999h844.001c49.439 0 89.999 40.259 89.999 89.999v600.002c0 49.44-40.253 90-89.999 90zM921.574 778l-407.665-407.665-411.192 407.665h818.856zM60 160.425v575.437l288.958-286.48-288.958-288.957zM102.426 118.001l289.14 289.142 101.314-100.444c11.728-11.633 30.655-11.592 42.334 0.092l98.785 98.785 287.575-287.575h-819.148zM963.999 160.425l-287.575 287.575 287.575 287.576v-575.151z" />
<glyph unicode="&#xe913;" glyph-name="comments" d="M384.004 405.335c94.257 0 170.666 76.409 170.666 170.665s-76.409 170.666-170.666 170.666c-94.257 0-170.666-76.41-170.666-170.666s76.41-170.665 170.666-170.665zM383.996 320c-113.92 0-341.333-57.175-341.333-170.665v-85.335h682.667v85.335c0 113.49-227.414 170.665-341.334 170.665zM715.090 731.307l-71.68-72.106c35.84-50.346 35.84-115.626 0-165.974l71.68-72.107c86.185 86.187 86.185 216.321 0 310.187zM856.315 874.667l-69.545-69.546c118.185-128.854 118.185-322.56 0-458.241l69.545-69.545c166.4 165.97 166.83 424.532 0 597.332z" />
<glyph unicode="&#xe914;" glyph-name="come" d="M430.507 294.827l60.16-60.16 213.333 213.333-213.333 213.333-60.16-60.16 110.080-110.507h-412.587v-85.333h412.587l-110.080-110.507zM810.667 832h-597.333c-47.36 0-85.333-38.4-85.333-85.333v-170.667h85.333v170.667h597.333v-597.333h-597.333v170.667h-85.333v-170.667c0-46.933 37.973-85.333 85.333-85.333h597.333c46.933 0 85.333 38.4 85.333 85.333v597.333c0 46.933-38.4 85.333-85.333 85.333z" />
<glyph unicode="&#xe915;" glyph-name="broad" d="M548.109 97.684h-395.587c-84.236 0-152.522 68.286-152.522 152.522v395.587c0 84.236 68.286 152.522 152.522 152.522v0h395.587c84.236 0 152.522-68.286 152.522-152.522v0-11.857l147.133 73.297c12.92 6.913 28.263 10.974 44.554 10.974 2.149 0 4.281-0.071 6.395-0.21l-0.287 0.015c54.966-2.376 98.627-47.513 98.627-102.849 0-0.032 0-0.064 0-0.095v0.005-334.147c0.003-0.312 0.005-0.682 0.005-1.051 0-36.648-19.457-68.752-48.604-86.545l-0.445-0.253c-14.131-8.822-31.141-14.338-49.381-15.084l-0.202-0.007c-1.372-0.063-2.981-0.098-4.598-0.098-16.734 0-32.578 3.813-46.709 10.618l0.646-0.28-147.133 71.141v-11.857c-1.514-83.068-69.21-149.827-152.498-149.827-0.008 0-0.017 0-0.025 0h0.001zM152.522 690.526c-0.161 0.002-0.352 0.003-0.542 0.003-24.407 0-44.194-19.786-44.194-44.194 0-0.191 0.001-0.381 0.004-0.571v0.029-395.587c-0.002-0.161-0.003-0.352-0.003-0.542 0-24.407 19.786-44.194 44.194-44.194 0.191 0 0.381 0.001 0.571 0.004h395.558c0.161-0.002 0.352-0.003 0.542-0.003 24.407 0 44.194 19.786 44.194 44.194 0 0.191-0.001 0.381-0.004 0.571v-0.029 395.587c0.002 0.161 0.003 0.352 0.003 0.542 0 24.407-19.786 44.194-44.194 44.194-0.191 0-0.381-0.001-0.571-0.004h0.029zM700.632 382.787l189.171-94.855v323.368l-189.171-97.549z" />
<glyph unicode="&#xe916;" glyph-name="balance" d="M554.66 661.332h-85.335v-170.666h-170.666v-85.336h170.666v-170.665h85.335v170.665h170.665v85.336h-170.665v170.666zM511.992 874.665c-235.52 0-426.667-191.146-426.667-426.665s191.147-426.67 426.667-426.67c235.518 0 426.668 191.15 426.668 426.67 0 235.519-191.15 426.665-426.668 426.665zM511.992 106.665c-188.16 0-341.334 153.175-341.334 341.335 0 188.159 153.174 341.332 341.334 341.332 188.158 0 341.333-153.174 341.333-341.332 0-188.16-153.175-341.335-341.333-341.335z" />
<glyph unicode="&#xe917;" glyph-name="apps" d="M170.675 618.668h170.666v170.667h-170.666v-170.667zM426.675 106.67h170.665v170.665h-170.665v-170.665zM170.675 106.67h170.666v170.665h-170.666v-170.665zM170.675 362.67h170.666v170.664h-170.666v-170.664zM426.675 362.67h170.665v170.664h-170.665v-170.664zM682.675 789.335v-170.667h170.665v170.667h-170.665zM426.675 618.668h170.665v170.667h-170.665v-170.667zM682.675 362.67h170.665v170.664h-170.665v-170.664zM682.675 106.67h170.665v170.665h-170.665v-170.665z" />
</font>
</defs>
</svg>
